<svg xmlns="http://www.w3.org/2000/svg" width="300" height="195" viewBox="0 0 300 195" role="img" aria-labelledby="title desc">
  <title id="title">Top Languages</title>
  <desc id="desc">Top repository languages for SachinManral.</desc>
  <rect width="300" height="195" rx="8" fill="#0d1117"/>
  <rect x="0.5" y="0.5" width="299" height="194" rx="8" fill="none" stroke="#22c55e" stroke-opacity="0.25"/>
  <text x="24" y="42" fill="#22c55e" font-family="Segoe UI, Arial, sans-serif" font-size="22" font-weight="700">Top Languages</text>
  <text x="24" y="61" fill="#8b949e" font-family="Segoe UI, Arial, sans-serif" font-size="12">Generated from public repositories</text>
  <text x="24" y="72" fill="#ffffff" font-family="Segoe UI, Arial, sans-serif" font-size="13" font-weight="600">TypeScript</text>
  <text x="276" y="72" fill="#8b949e" font-family="Segoe UI, Arial, sans-serif" font-size="12" text-anchor="end">49.5%</text>
  <rect x="24" y="79" width="252" height="7" rx="3.5" fill="#161b22"/>
  <rect x="24" y="79" width="100" height="7" rx="3.5" fill="#22c55e"/>
  <text x="24" y="96" fill="#ffffff" font-family="Segoe UI, Arial, sans-serif" font-size="13" font-weight="600">JavaScript</text>
  <text x="276" y="96" fill="#8b949e" font-family="Segoe UI, Arial, sans-serif" font-size="12" text-anchor="end">14.9%</text>
  <rect x="24" y="103" width="252" height="7" rx="3.5" fill="#161b22"/>
  <rect x="24" y="103" width="30" height="7" rx="3.5" fill="#38bdf8"/>
  <text x="24" y="120" fill="#ffffff" font-family="Segoe UI, Arial, sans-serif" font-size="13" font-weight="600">Python</text>
  <text x="276" y="120" fill="#8b949e" font-family="Segoe UI, Arial, sans-serif" font-size="12" text-anchor="end">13.5%</text>
  <rect x="24" y="127" width="252" height="7" rx="3.5" fill="#161b22"/>
  <rect x="24" y="127" width="27" height="7" rx="3.5" fill="#f97316"/>
  <text x="24" y="144" fill="#ffffff" font-family="Segoe UI, Arial, sans-serif" font-size="13" font-weight="600">Jupyter Notebook</text>
  <text x="276" y="144" fill="#8b949e" font-family="Segoe UI, Arial, sans-serif" font-size="12" text-anchor="end">9.1%</text>
  <rect x="24" y="151" width="252" height="7" rx="3.5" fill="#161b22"/>
  <rect x="24" y="151" width="18" height="7" rx="3.5" fill="#a78bfa"/>
  <text x="24" y="168" fill="#ffffff" font-family="Segoe UI, Arial, sans-serif" font-size="13" font-weight="600">HTML</text>
  <text x="276" y="168" fill="#8b949e" font-family="Segoe UI, Arial, sans-serif" font-size="12" text-anchor="end">4.7%</text>
  <rect x="24" y="175" width="252" height="7" rx="3.5" fill="#161b22"/>
  <rect x="24" y="175" width="9" height="7" rx="3.5" fill="#facc15"/>
</svg>
